<?xml version="1.0" encoding="UTF-8"?> <svg xmlns="http://www.w3.org/2000/svg" width="100" height="100" viewBox="0 0 100 100" fill="none"><path fill-rule="evenodd" clip-rule="evenodd" d="M79.78 18H21.23C18.2532 18.0053 15.3999 19.1901 13.295 21.295C11.1901 23.3999 10.0053 26.2532 10 29.23V62.78C10.0026 65.7549 11.1856 68.6072 13.2892 70.7108C15.3928 72.8144 18.2451 73.9974 21.22 74H27V91.08C27 91.3719 27.0851 91.6574 27.2449 91.9016C27.4048 92.1459 27.6324 92.3381 27.8999 92.4549C28.1674 92.5717 28.4632 92.6079 28.751 92.559C29.0387 92.5102 29.306 92.3785 29.52 92.18L49.06 74H79.77C82.7468 73.9947 85.6001 72.8099 87.705 70.705C89.8099 68.6001 90.9947 65.7468 91 62.77V29.22C90.9974 26.2451 89.8144 23.3928 87.7108 21.2892C85.6072 19.1856 82.7549 18.0026 79.78 18ZM88 62.77C87.9974 64.9519 87.1294 67.0437 85.5866 68.5866C84.0437 70.1294 81.9519 70.9974 79.77 71H48.47C48.0986 71.0049 47.7423 71.1475 47.47 71.4L30 87.64V72.5C30 72.1022 29.842 71.7206 29.5607 71.4393C29.2794 71.158 28.8978 71 28.5 71H21.22C19.0407 70.9974 16.9515 70.1305 15.4105 68.5895C13.8695 67.0485 13.0026 64.9593 13 62.78V29.23C13.0026 27.0481 13.8706 24.9563 15.4134 23.4134C16.9563 21.8706 19.0481 21.0026 21.23 21H79.78C81.9593 21.0026 84.0485 21.8695 85.5895 23.4105C87.1305 24.9515 87.9974 27.0407 88 29.22V62.77Z" fill="white" stroke="white" stroke-width="0.5"></path><path fill-rule="evenodd" clip-rule="evenodd" d="M30.1601 48.84C29.2483 48.84 28.357 49.1103 27.5989 49.6169C26.8408 50.1234 26.2499 50.8434 25.901 51.6858C25.552 52.5282 25.4608 53.4551 25.6386 54.3493C25.8165 55.2436 26.2556 56.065 26.9003 56.7097C27.545 57.3544 28.3664 57.7935 29.2607 57.9714C30.1549 58.1493 31.0819 58.058 31.9242 57.709C32.7666 57.3601 33.4866 56.7693 33.9931 56.0111C34.4997 55.253 34.7701 54.3617 34.7701 53.45C34.7674 52.2281 34.2809 51.0571 33.4169 50.1931C32.5529 49.3292 31.3819 48.8426 30.1601 48.84ZM30.1601 55.07C29.842 55.07 29.5312 54.9758 29.2666 54.7993C29.0021 54.6228 28.7957 54.372 28.6736 54.0784C28.5514 53.7848 28.519 53.4616 28.5803 53.1495C28.6416 52.8375 28.794 52.5506 29.0181 52.3251C29.2423 52.0995 29.5282 51.9454 29.8399 51.8821C30.1515 51.8189 30.4749 51.8493 30.7693 51.9697C31.0636 52.09 31.3158 52.2948 31.4939 52.5582C31.672 52.8217 31.7681 53.132 31.7701 53.45C31.7701 53.877 31.6004 54.2865 31.2985 54.5884C30.9966 54.8903 30.587 55.06 30.1601 55.06V55.07ZM43.3101 48.84C42.3983 48.84 41.507 49.1103 40.7489 49.6169C39.9908 50.1234 39.3999 50.8434 39.051 51.6858C38.702 52.5282 38.6108 53.4551 38.7886 54.3493C38.9665 55.2436 39.4056 56.065 40.0503 56.7097C40.695 57.3544 41.5164 57.7935 42.4107 57.9714C43.3049 58.1493 44.2319 58.058 45.0742 57.709C45.9166 57.3601 46.6366 56.7693 47.1431 56.0111C47.6497 55.253 47.92 54.3617 47.92 53.45C47.9174 52.2281 47.4309 51.0571 46.5669 50.1931C45.7029 49.3292 44.5319 48.8426 43.3101 48.84ZM43.3101 55.07C42.9921 55.07 42.6812 54.9758 42.4166 54.7993C42.1521 54.6228 41.9457 54.372 41.8236 54.0784C41.7014 53.7848 41.669 53.4616 41.7303 53.1495C41.7916 52.8375 41.944 52.5506 42.1681 52.3251C42.3923 52.0995 42.6782 51.9454 42.9899 51.8821C43.3015 51.8189 43.6249 51.8493 43.9193 51.9697C44.2136 52.09 44.4658 52.2948 44.6439 52.5582C44.822 52.8217 44.9181 53.132 44.92 53.45C44.92 53.877 44.7504 54.2865 44.4485 54.5884C44.1466 54.8903 43.7371 55.06 43.3101 55.06V55.07ZM57.42 48.94C56.3771 48.7158 55.2886 48.8603 54.3402 49.3489C53.3919 49.8374 52.6423 50.6397 52.2193 51.6191C51.7963 52.5984 51.726 53.6942 52.0205 54.7195C52.3149 55.7449 52.9559 56.6364 53.8341 57.2421C54.7123 57.8477 55.7734 58.1301 56.8365 58.0409C57.8996 57.9518 58.8988 57.4968 59.6639 56.7533C60.4291 56.0099 60.9126 55.0241 61.0323 53.9641C61.1519 52.904 60.9002 51.8352 60.32 50.94C59.6555 49.9165 58.6129 49.1975 57.42 48.94ZM58.0201 53.79C57.9515 54.1007 57.7924 54.3842 57.5628 54.6046C57.3333 54.825 57.0436 54.9724 56.7303 55.0282C56.417 55.084 56.0942 55.0458 55.8026 54.9182C55.5111 54.7907 55.2638 54.5796 55.0922 54.3117C54.9205 54.0437 54.8321 53.7309 54.8381 53.4127C54.8442 53.0945 54.9443 52.7853 55.126 52.524C55.3077 52.2627 55.5627 52.0612 55.8589 51.9448C56.1551 51.8284 56.4791 51.8023 56.7901 51.87C57.2044 51.9654 57.5642 52.2208 57.7909 52.5805C58.0176 52.9402 58.0928 53.375 58 53.79H58.0201ZM73.09 29.8C71.9962 29.5608 70.8626 29.5699 69.7727 29.8266C68.6829 30.0833 67.6644 30.5811 66.7923 31.2834C65.9202 31.9857 65.2167 32.8746 64.7335 33.8846C64.2502 34.8947 63.9996 36.0003 64 37.12C64 37.5178 64.1581 37.8993 64.4394 38.1806C64.7207 38.4619 65.1022 38.62 65.5 38.62C65.8979 38.62 66.2794 38.4619 66.5607 38.1806C66.842 37.8993 67 37.5178 67 37.12C67.0001 36.2348 67.2623 35.3694 67.7537 34.6331C68.2451 33.8968 68.9436 33.3226 69.761 32.9829C70.5785 32.6433 71.4782 32.5534 72.3467 32.7246C73.2152 32.8959 74.0135 33.3206 74.6408 33.9451C75.2682 34.5697 75.6964 35.3661 75.8715 36.2338C76.0466 37.1015 75.9608 38.0016 75.6247 38.8206C75.2887 39.6395 74.7176 40.3406 73.9835 40.8352C73.2494 41.3299 72.3852 41.596 71.5 41.6C71.1022 41.6 70.7207 41.758 70.4394 42.0393C70.1581 42.3206 70 42.7021 70 43.1V49.5C70 49.8978 70.1581 50.2793 70.4394 50.5606C70.7207 50.8419 71.1022 51 71.5 51C71.8979 51 72.2794 50.8419 72.5607 50.5606C72.842 50.2793 73 49.8978 73 49.5V44.5C74.6795 44.1524 76.1888 43.239 77.2758 41.9124C78.3628 40.5858 78.9616 38.9264 78.9721 37.2114C78.9826 35.4964 78.4043 33.8297 77.3337 32.4898C76.2631 31.15 74.7651 30.2181 73.09 29.85V29.8ZM71.5 54C71.1022 54 70.7207 54.158 70.4394 54.4393C70.1581 54.7206 70 55.1021 70 55.5V57.5C70 57.8978 70.1581 58.2793 70.4394 58.5606C70.7207 58.8419 71.1022 59 71.5 59C71.8979 59 72.2794 58.8419 72.5607 58.5606C72.842 58.2793 73 57.8978 73 57.5V55.5C73 55.1021 72.842 54.7206 72.5607 54.4393C72.2794 54.158 71.8979 54 71.5 54Z" fill="white" stroke="white" stroke-width="0.5"></path></svg> 